<?xml version="1.0" encoding="utf-8"?>
<svg version="1.1" xmlns="http://www.w3.org/2000/svg" viewBox="0 0 354 1000">
<g>
	<path d="M272.12,521.77L8.88,65.82C-3.24,44.83,3.95,18,24.94,5.89l0,0C45.92-6.23,72.76,0.96,84.87,21.94l263.24,455.95
		c12.12,20.98,4.93,47.82-16.06,59.93h0C311.07,549.94,284.24,542.75,272.12,521.77z"/>
	<path d="M348.11,522.11L84.87,978.06c-12.12,20.98-38.95,28.17-59.93,16.06h0C3.95,982-3.24,955.17,8.88,934.18l263.24-455.95
		c12.12-20.98,38.95-28.17,59.93-16.06l0,0C353.04,474.29,360.23,501.12,348.11,522.11z"/>
</g>
</svg>
