<?xml version="1.0" encoding="utf-8"?>
<svg version="1.1" xmlns="http://www.w3.org/2000/svg" viewBox="0 0 354 1000">
<g>
	<path d="M84.87,521.77L348.11,65.82c12.12-20.98,4.93-47.82-16.06-59.93l0,0c-20.98-12.12-47.82-4.93-59.93,16.06L8.88,477.89
		c-12.12,20.98-4.93,47.82,16.06,59.93h0C45.92,549.94,72.76,542.75,84.87,521.77z"/>
	<path d="M8.88,522.11l263.24,455.95c12.12,20.98,38.95,28.17,59.93,16.06h0c20.98-12.12,28.17-38.95,16.06-59.93L84.87,478.23
		c-12.12-20.98-38.95-28.17-59.93-16.06l0,0C3.95,474.29-3.24,501.12,8.88,522.11z"/>
</g>
</svg>