<?xml version="1.0" encoding="utf-8"?>
<svg xmlns="http://www.w3.org/2000/svg" viewBox="0 0 1000 1000">
    <style type="text/css">
        .st0{fill:#EFDB92;}
    </style>
    <path class="st0" d="M780.89,1000c-7.56,0-15.15-1.88-22.03-5.68L500,851.21L241.14,994.32c-15.25,8.43-33.98,7.42-48.23-2.61
		c-14.25-10.03-21.52-27.3-18.71-44.49l49.96-306.28L12.92,424.43c-11.9-12.2-15.98-30.02-10.56-46.17
		c5.42-16.15,19.41-27.93,36.27-30.5l290.04-44.32L458.8,26.16C466.29,10.2,482.35,0,500,0c17.65,0,33.71,10.2,41.2,26.16
		l130.14,277.28l290.04,44.32c16.85,2.58,30.85,14.35,36.27,30.5c5.42,16.15,1.34,33.98-10.56,46.17L775.85,640.95l49.96,306.28
		c2.8,17.19-4.46,34.46-18.71,44.49C799.27,997.21,790.1,1000,780.89,1000z"/>
</svg>
